<svg xmlns="http://www.w3.org/2000/svg" width="18.021" height="18.021" viewBox="0 0 18.021 18.021">
    <defs>
        <style>
            .cls-2{fill:#4066cb}
        </style>
    </defs>
    <g id="Group_4029" transform="translate(-45.99 -650.99)">
        <g id="Group_4028" transform="translate(44.383 649.383)">
            <g id="Group_4028-2">
                <path id="Path_4763" fill="#fed200" d="M9.01 0A9.005 9.005 0 0 0 0 9.01v8.306a.7.7 0 0 0 .7.7h8.31A9.01 9.01 0 0 0 9.01 0z" transform="translate(1.607 1.607)"/>
                <path id="Path_4767" d="M186.87 140c-1.952 0-2.848 1.156-2.848 1.937a.829.829 0 0 0 .867.824c.781 0 .463-1.113 1.937-1.113.723 0 1.3.318 1.3.983 0 .781-.81 1.229-1.287 1.634a2.646 2.646 0 0 0-.969 2.2c0 .752.2.969.8.969.708 0 .853-.318.853-.593a1.816 1.816 0 0 1 .81-1.807 3.7 3.7 0 0 0 1.619-2.646c-.003-1.36-1.232-2.388-3.082-2.388z" class="cls-2" transform="translate(-176.39 -134.196)"/>
                <path id="Path_4768" d="M222.766 343.22a1.113 1.113 0 0 0 0 2.226 1.113 1.113 0 1 0 0-2.226z" class="cls-2" transform="translate(-212.474 -328.986)"/>
            </g>
        </g>
    </g>
</svg>
