<svg xmlns="http://www.w3.org/2000/svg" xmlns:xlink="http://www.w3.org/1999/xlink" width="42.401" height="42.399" viewBox="0 0 42.401 42.399">
  <defs>
    <clipPath id="clip-path">
      <path id="Path_981" data-name="Path 981" d="M308.676-362.932h9.348l-1.638-7.861a1.242,1.242,0,0,0-1.216-.989H300.781Z" transform="translate(-300.781 371.781)" fill="none"/>
    </clipPath>
    <clipPath id="clip-path-2">
      <path id="Path_983" data-name="Path 983" d="M20.231-371.785H5.866a1.242,1.242,0,0,0-1.216.989l-1.638,7.861h9.257Z" transform="translate(-3.012 371.785)" fill="none"/>
    </clipPath>
    <clipPath id="clip-path-3">
      <path id="Path_985" data-name="Path 985" d="M242.242-287.059A1.244,1.244,0,0,0,241-285.816a1.244,1.244,0,0,0,1.242,1.242,1.244,1.244,0,0,0,1.242-1.242A1.244,1.244,0,0,0,242.242-287.059Z" transform="translate(-241 287.059)" fill="none"/>
    </clipPath>
    <clipPath id="clip-path-4">
      <path id="Path_987" data-name="Path 987" d="M240.434-83.008h2.484v6.873h-2.484Z" transform="translate(-240.434 83.008)" fill="none"/>
    </clipPath>
    <clipPath id="clip-path-5">
      <path id="Path_989" data-name="Path 989" d="M32.247-489.054a1.242,1.242,0,0,1-.927-.415l-8.877-9.951v-6.368h5.648a.828.828,0,0,0,.711-1.253l-1.107-1.852,1.107-1.852A.828.828,0,0,0,28.091-512H21.2a1.242,1.242,0,0,0-1.242,1.242v11.316l-8.974,9.976a1.242,1.242,0,0,1-.924.411H0v18.211A1.242,1.242,0,0,0,1.242-469.6H17.427v-8.115a1.242,1.242,0,0,1,1.242-1.242h4.969a1.242,1.242,0,0,1,1.242,1.242v8.115H41.159a1.242,1.242,0,0,0,1.242-1.242v-18.211ZM7.571-476.059a1.242,1.242,0,0,1-1.242,1.242,1.242,1.242,0,0,1-1.242-1.242v-1.656a1.242,1.242,0,0,1,1.242-1.242,1.242,1.242,0,0,1,1.242,1.242Zm0-6.625a1.242,1.242,0,0,1-1.242,1.242,1.242,1.242,0,0,1-1.242-1.242v-1.656a1.243,1.243,0,0,1,1.242-1.242,1.242,1.242,0,0,1,1.242,1.242Zm4.969,6.625a1.242,1.242,0,0,1-1.242,1.242,1.242,1.242,0,0,1-1.242-1.242v-1.656a1.242,1.242,0,0,1,1.242-1.242,1.242,1.242,0,0,1,1.242,1.242Zm0-6.625a1.242,1.242,0,0,1-1.242,1.242,1.242,1.242,0,0,1-1.242-1.242v-1.656a1.243,1.243,0,0,1,1.242-1.242,1.242,1.242,0,0,1,1.242,1.242Zm7.356,0a1.242,1.242,0,0,1-1.242,1.242,1.242,1.242,0,0,1-1.242-1.242v-1.656a1.242,1.242,0,0,1,1.242-1.242A1.242,1.242,0,0,1,19.9-484.34Zm-2.422-9.446a3.731,3.731,0,0,1,3.727-3.726,3.731,3.731,0,0,1,3.727,3.726A3.731,3.731,0,0,1,21.2-488.4a3.731,3.731,0,0,1-3.727-3.727Zm7.515,9.446a1.242,1.242,0,0,1-1.242,1.242,1.242,1.242,0,0,1-1.242-1.242v-1.656a1.242,1.242,0,0,1,1.242-1.242,1.242,1.242,0,0,1,1.242,1.242Zm7.045,6.625a1.242,1.242,0,0,1-1.242,1.242,1.242,1.242,0,0,1-1.242-1.242v-1.656a1.242,1.242,0,0,1,1.242-1.242,1.242,1.242,0,0,1,1.242,1.242Zm0-6.625a1.242,1.242,0,0,1-1.242,1.242,1.242,1.242,0,0,1-1.242-1.242v-1.656a1.242,1.242,0,0,1,1.242-1.242,1.243,1.243,0,0,1,1.242,1.242ZM37-476.059a1.242,1.242,0,0,1-1.242,1.242,1.242,1.242,0,0,1-1.242-1.242v-1.656a1.242,1.242,0,0,1,1.242-1.242A1.242,1.242,0,0,1,37-477.716Zm0-6.625a1.242,1.242,0,0,1-1.242,1.242,1.242,1.242,0,0,1-1.242-1.242v-1.656a1.242,1.242,0,0,1,1.242-1.242A1.243,1.243,0,0,1,37-484.34Z" transform="translate(0 512)" fill="none"/>
    </clipPath>
  </defs>
  <g id="Group_2688" data-name="Group 2688" transform="translate(0 512)">
    <g id="Group_2683" data-name="Group 2683" transform="translate(24.909 -500.388)" clip-path="url(#clip-path)">
      <path id="Path_980" data-name="Path 980" d="M295.781-376.781h18.071v9.677H295.781Z" transform="translate(-296.195 376.367)"/>
    </g>
    <g id="Group_2684" data-name="Group 2684" transform="translate(0.249 -500.388)" clip-path="url(#clip-path-2)">
      <path id="Path_982" data-name="Path 982" d="M-1.988-376.785H16.059v9.678H-1.988Z" transform="translate(1.574 376.371)"/>
    </g>
    <g id="Group_2685" data-name="Group 2685" transform="translate(19.958 -493.372)" clip-path="url(#clip-path-3)">
      <path id="Path_984" data-name="Path 984" d="M236-292.059h3.313v3.312H236Z" transform="translate(-236.414 291.645)"/>
    </g>
    <g id="Group_2686" data-name="Group 2686" transform="translate(19.911 -476.473)" clip-path="url(#clip-path-4)">
      <path id="Path_986" data-name="Path 986" d="M235.434-88.008h3.313v7.7h-3.313Z" transform="translate(-235.848 87.594)"/>
    </g>
    <g id="Group_2687" data-name="Group 2687" transform="translate(0 -512)" clip-path="url(#clip-path-5)">
      <path id="Path_988" data-name="Path 988" d="M-5-517H38.229v43.227H-5Z" transform="translate(4.586 516.586)"/>
    </g>
  </g>
</svg>
