<svg xmlns="http://www.w3.org/2000/svg" width="14.545" height="13.333" viewBox="0 0 14.545 13.333">
    <defs>
        <clipPath id="clip-path">
            <path id="Path_708" d="M11.438-469.644a2.912 2.912 0 0 0-1.666.863l-6.73 6.73a2.025 2.025 0 0 0-.592 1.083 1.9 1.9 0 0 0 2.18 2.184 2.017 2.017 0 0 0 1.084-.59l6.14-6.14a.3.3 0 0 0 0-.429l-.428-.428a.3.3 0 0 0-.429 0l-6.2 6.2a.677.677 0 0 1-.481.2.68.68 0 0 1-.679-.68.675.675 0 0 1 .2-.48L10.71-468a1.527 1.527 0 0 1 1.087-.45 1.543 1.543 0 0 1 1.537 1.558 1.529 1.529 0 0 1-.432 1.068l-7.166 7.413a2.743 2.743 0 0 1-1.616.85 2.6 2.6 0 0 1-2.9-2.822 2.7 2.7 0 0 1 .813-1.669l6.667-6.669a.3.3 0 0 0 0-.429l-.428-.428a.3.3 0 0 0-.429 0l-6.73 6.73A3.792 3.792 0 0 0 0-460.132a3.776 3.776 0 0 0 1.088 2.632 3.765 3.765 0 0 0 5.44.008l7.244-7.495a2.747 2.747 0 0 0 .773-1.931 2.752 2.752 0 0 0-3.107-2.726z" class="cls-1" transform="translate(0 469.667)"/>
        </clipPath>
        <style>
            .cls-1{fill:#fff}
        </style>
    </defs>
    <g id="Group_2480" transform="translate(0 469.667)">
        <g id="Group_2479" clip-path="url(#clip-path)" transform="translate(0 -469.667)">
            <path id="Path_707" d="M-5-474.667H9.829v13.617H-5z" class="cls-1" transform="translate(4.858 474.525)"/>
        </g>
    </g>
</svg>
