<svg xmlns="http://www.w3.org/2000/svg" width="14.06" height="19.562" viewBox="0 0 14.06 19.562">
    <defs>
        <style>
            .cls-1{fill:#fed200}
        </style>
    </defs>
    <g id="book" transform="translate(-4.553 -56.624)">
        <g id="Group_4030" transform="translate(0 58.303)">
            <g id="book_1_" transform="translate(-67.447 -1.679)">
                <path id="Path_4769" d="M85.449 0H74.522A2.524 2.524 0 0 0 72 2.522v14.289a2.754 2.754 0 0 0 2.751 2.751h10.7a.611.611 0 1 0 0-1.223h-10.7a1.528 1.528 0 1 1 0-3.057h10.7a.611.611 0 0 0 .611-.611V.611A.611.611 0 0 0 85.449 0zM73.223 14.191V2.522a1.3 1.3 0 0 1 1.3-1.3h.038a.191.191 0 0 1 .191.191v12.462a.19.19 0 0 1-.177.19 2.73 2.73 0 0 0-1.076.3.191.191 0 0 1-.276-.174z" class="cls-1"/>
                <path id="Path_4770" d="M139.309 424h-10.7a.611.611 0 0 0 0 1.223h10.7a.611.611 0 0 0 0-1.223z" class="cls-1" transform="translate(-53.86 -407.8)"/>
            </g>
        </g>
    </g>
</svg>
