<?xml version="1.0" standalone="no"?>
<!DOCTYPE svg PUBLIC "-//W3C//DTD SVG 20010904//EN"
 "http://www.w3.org/TR/2001/REC-SVG-20010904/DTD/svg10.dtd">
<svg version="1.0" xmlns="http://www.w3.org/2000/svg"
 width="86.000000pt" height="86.000000pt" viewBox="0 0 86.000000 86.000000"
 preserveAspectRatio="xMidYMid meet">

<g transform="translate(0.000000,86.000000) scale(0.100000,-0.100000)"
fill="#000000" stroke="none">
<path d="M248 703 c6 -2 18 -2 25 0 6 3 1 5 -13 5 -14 0 -19 -2 -12 -5z"/>
<path d="M169 675 c-34 -22 -55 -52 -45 -62 2 -3 7 5 11 16 3 11 25 32 48 46
23 14 37 25 32 25 -6 0 -27 -11 -46 -25z"/>
<path d="M389 633 c19 -18 39 -33 45 -33 6 0 2 6 -9 13 -18 11 -17 12 20 19
l40 6 -45 -2 c-29 -2 -52 3 -66 13 -11 9 -5 1 15 -16z"/>
<path d="M501 613 c8 -13 20 -23 28 -23 8 0 12 1 10 3 -2 1 -15 11 -28 22
l-24 20 14 -22z"/>
<path d="M113 565 c0 -22 2 -30 4 -17 2 12 2 30 0 40 -3 9 -5 -1 -4 -23z"/>
<path d="M215 589 c-4 -6 -5 -12 -2 -15 2 -3 7 2 10 11 7 17 1 20 -8 4z"/>
<path d="M468 593 c6 -2 18 -2 25 0 6 3 1 5 -13 5 -14 0 -19 -2 -12 -5z"/>
<path d="M578 593 c17 -2 47 -2 65 0 17 2 3 4 -33 4 -36 0 -50 -2 -32 -4z"/>
<path d="M695 578 c11 -6 29 -18 40 -27 12 -9 8 -4 -7 12 -16 15 -34 27 -41
27 -6 0 -3 -6 8 -12z"/>
<path d="M202 530 c0 -14 2 -19 5 -12 2 6 2 18 0 25 -3 6 -5 1 -5 -13z"/>
<path d="M120 510 c0 -24 49 -60 83 -60 31 0 34 -2 29 -25 -2 -14 -8 -25 -13
-25 -5 0 -9 -10 -8 -22 0 -16 2 -18 6 -8 3 8 9 17 13 20 5 3 10 19 11 35 4 28
2 30 -33 33 -27 2 -44 12 -63 33 -14 17 -25 25 -25 19z"/>
<path d="M767 474 c3 -27 7 -51 9 -53 8 -9 3 75 -5 88 -5 8 -7 -5 -4 -35z"/>
<path d="M210 491 c0 -6 4 -13 10 -16 6 -3 7 1 4 9 -7 18 -14 21 -14 7z"/>
<path d="M421 454 c0 -11 3 -14 6 -6 3 7 2 16 -1 19 -3 4 -6 -2 -5 -13z"/>
<path d="M290 432 c0 -29 32 -72 55 -72 6 1 2 5 -8 11 -11 6 -25 25 -33 43 -7
17 -13 25 -14 18z"/>
<path d="M760 402 c0 -7 -15 -21 -32 -32 -18 -11 -28 -20 -21 -20 18 0 69 47
61 56 -5 4 -8 2 -8 -4z"/>
<path d="M450 383 c13 -29 41 -43 77 -42 23 1 21 3 -11 9 -22 4 -47 18 -58 31
-18 23 -19 23 -8 2z"/>
<path d="M590 375 c-10 -12 -9 -15 4 -15 13 0 15 -4 8 -17 -5 -10 -13 -47 -16
-83 l-7 -65 -42 2 -42 2 40 -8 c22 -5 43 -7 46 -5 8 4 21 80 20 112 -1 13 4
32 9 42 7 13 7 21 0 25 -6 4 -8 11 -5 16 10 14 -1 10 -15 -6z"/>
<path d="M240 376 c0 -2 8 -10 18 -17 15 -13 16 -12 3 4 -13 16 -21 21 -21 13z"/>
<path d="M368 363 c7 -3 16 -2 19 1 4 3 -2 6 -13 5 -11 0 -14 -3 -6 -6z"/>
<path d="M643 343 c9 -2 25 -2 35 0 9 3 1 5 -18 5 -19 0 -27 -2 -17 -5z"/>
<path d="M190 308 c0 -9 7 -19 16 -22 15 -6 15 -4 3 11 -7 10 -15 20 -16 22
-2 2 -3 -3 -3 -11z"/>
<path d="M398 213 c6 -2 18 -2 25 0 6 3 1 5 -13 5 -14 0 -19 -2 -12 -5z"/>
<path d="M453 203 c9 -2 23 -2 30 0 6 3 -1 5 -18 5 -16 0 -22 -2 -12 -5z"/>
</g>
</svg>
