<svg xmlns="http://www.w3.org/2000/svg" width="16.492" height="26.101" viewBox="0 0 16.492 26.101">
    <defs>
        <style>
            .cls-5{fill:#ff5876}.cls-6{fill:#e6485d}.cls-9{fill:#ffc4ad}.cls-10{fill:#ffb69f}.cls-13{fill:#2d4456}.cls-14{fill:#253847}.cls-15{fill:#4ea1f4}.cls-16{fill:#3292e0}
        </style>
    </defs>
    <g id="student_1_" transform="translate(-94.246 -.002)">
        <g id="Group_3134" transform="translate(94.246 .002)">
            <path id="Path_4528" fill="#86dcff" d="M110.246 342.086H94.737l-.491-.491v-3.408a6.343 6.343 0 0 1 2.086-4.709h12.32a6.343 6.343 0 0 1 2.086 4.709v3.408z" transform="translate(-94.246 -316.477)"/>
            <path id="Path_4529" fill="#56caed" d="M94.519 493.7h2.6l.382-.459.382.459h9.217l.382-.459.382.459h2.6a.273.273 0 0 0 .273-.273v-.71H94.246v.71a.273.273 0 0 0 .273.273z" transform="translate(-94.246 -467.602)"/>
            <path id="Path_4530" fill="#e4eef9" d="M180.333 306.49l4.111-4.523-.027-.462a6.344 6.344 0 0 0-2.2-.39h-3.773a6.344 6.344 0 0 0-2.178.383l.021.543z" transform="translate(-172.087 -285.765)"/>
            <path id="Path_4531" fill="#d5e0f2" d="M163.953 308.773a6.339 6.339 0 0 0-.641.277l.169.727 4.556 4.964 4.6-5.015.123-.676a6.334 6.334 0 0 0-.641-.277l-3.882 4.271a.273.273 0 0 1-.4 0z" transform="translate(-159.791 -293.033)"/>
            <path id="Path_4532" d="M232.583 331.755l1.157-1.273.1-.6-.3-1.651-.957-.492-.957.491-.3 1.651.1.6z" class="cls-5" transform="translate(-224.337 -311.03)"/>
            <path id="Path_4533" d="M231.379 302.965h-1.913l-.417-1.849h2.751z" class="cls-6" transform="translate(-222.176 -285.766)"/>
            <path id="Path_4534" d="M231.209 370.585l-.149-.819-1.06 1.162a.273.273 0 0 1-.4 0l-1.056-1.162-.149.819 1.407 2.531z" class="cls-6" transform="translate(-221.555 -350.916)"/>
            <path id="Path_4535" fill="#ffcf4d" d="M146.141 314.21a6.37 6.37 0 0 0-.922.563l.063.56 4.978 5.478a.819.819 0 0 0 1.212 0l5.032-5.537.009-.5a6.37 6.37 0 0 0-.922-.563l-4.536 4.992a.255.255 0 0 1-.377 0z" transform="translate(-142.62 -298.192)"/>
            <path id="Path_4536" fill="#ffb629" d="M141.93 330.809a.819.819 0 0 1-1.212 0l-5.041-5.547a6.372 6.372 0 0 0-.513.419l5.554 6.111a.819.819 0 0 0 1.212 0l5.554-6.111a6.372 6.372 0 0 0-.513-.419z" transform="translate(-133.078 -308.681)"/>
            <path id="Path_4537" d="M121.126 170.088l-.491-1.323a1.723 1.723 0 0 0-1.822 1.2 1.571 1.571 0 0 0 1.644 1.741l.191-.5z" class="cls-9" transform="translate(-117.55 -160.153)"/>
            <path id="Path_4538" d="M119.227 194.1a1.721 1.721 0 0 1-1.649-1.23 1.722 1.722 0 0 0 2 2.176l.393-.456-.552-.5a1.726 1.726 0 0 1-.192.01z" class="cls-10" transform="translate(-116.32 -183.042)"/>
            <path id="Path_4539" d="M347.6 170.088l.491-1.323a1.723 1.723 0 0 1 1.822 1.2 1.571 1.571 0 0 1-1.644 1.741l-.191-.5z" class="cls-9" transform="translate(-334.688 -160.153)"/>
            <path id="Path_4540" d="M346.9 194.1a1.721 1.721 0 0 0 1.649-1.23 1.722 1.722 0 0 1-2 2.176l-.393-.456.552-.5a1.726 1.726 0 0 0 .192.01z" class="cls-10" transform="translate(-333.311 -183.042)"/>
            <path id="Path_4541" fill="#ffe0cc" d="M154.756 64.99v6.876a5.161 5.161 0 1 0 10.322 0V64.99z" transform="translate(-151.671 -61.677)"/>
            <path id="Path_4542" fill="#ffceb3" d="M159.917 195.392a5.161 5.161 0 0 1-5.161-5.161v.983a5.161 5.161 0 0 0 10.322 0v-.983a5.161 5.161 0 0 1-5.161 5.161z" transform="translate(-151.671 -180.534)"/>
            <path id="Path_4543" d="M123.769 6.967a23.327 23.327 0 0 1-1.734-1.662 5.434 5.434 0 0 1-2.581 1.289l-1.083-1.057a8.385 8.385 0 0 1-4.548 1.647.97.97 0 0 1-.26-.042 3.4 3.4 0 0 1-1.863-1.233s-.158-.359.091-.407a2.515 2.515 0 0 0 1.763-1.145 1.969 1.969 0 0 1-2.069-1.624.273.273 0 0 1 .288-.34c2.712.213 3.37-1.458 5.92-2.211a4.7 4.7 0 0 1 4.539 1.242 2.628 2.628 0 0 1 2.924 2.486c.223 2.624-1.387 3.057-1.387 3.057z" class="cls-13" transform="translate(-110.6 -.002)"/>
            <g id="Group_3133" transform="translate(.648 3.967)">
                <path id="Path_4544" d="M252.132 80.352a6.879 6.879 0 0 1-1.559-1.8.273.273 0 0 0-.448-.017c-1.116 1.441-3.439.862-3.439.862a2.721 2.721 0 0 1 .569 1.519.273.273 0 0 0 .333.269 4.119 4.119 0 0 0 2.762-2.019 7.863 7.863 0 0 0 1.781 2.169.273.273 0 0 0 .357-.036 4.438 4.438 0 0 0 .989-3.469 4.064 4.064 0 0 1-.989 2.486.273.273 0 0 1-.356.036z" class="cls-14" transform="translate(-239.563 -77.829)"/>
                <path id="Path_4545" d="M114.14 96.4a.272.272 0 0 0-.457-.237 6.07 6.07 0 0 1-4.149 1.716.971.971 0 0 1-.26-.042 4.864 4.864 0 0 1-1.77-1.149c-.1.018-.195.033-.3.044a.273.273 0 0 0-.175.454 5.752 5.752 0 0 0 2.244 1.633.97.97 0 0 0 .26.042 6.09 6.09 0 0 0 4.548-2.138c.026-.123.045-.223.059-.323z" class="cls-14" transform="translate(-106.959 -95.159)"/>
            </g>
            <path id="Path_4546" d="M151.385 430.862v2.791l-.382.491-.382-.491v-2.791a.382.382 0 0 1 .765 0z" class="cls-15" transform="translate(-147.746 -408.535)"/>
            <path id="Path_4547" d="M150.62 492.72h.765v.983h-.765z" class="cls-16" transform="translate(-147.746 -467.602)"/>
            <path id="Path_4548" d="M347.145 430.862v2.791l-.382.491-.382-.491v-2.791a.382.382 0 0 1 .765 0z" class="cls-15" transform="translate(-333.527 -408.535)"/>
            <path id="Path_4549" d="M346.38 492.72h.765v.983h-.765z" class="cls-16" transform="translate(-333.527 -467.602)"/>
        </g>
        <g id="Group_3136" transform="translate(99.581 8.686)">
            <path id="Path_4550" d="M219.733 230.614a1.975 1.975 0 0 0 1.915-1.07.41.41 0 1 0-.756-.316 1.47 1.47 0 0 1-2.319 0 .41.41 0 1 0-.756.316 1.974 1.974 0 0 0 1.916 1.07z" class="cls-5" transform="translate(-216.823 -225.987)"/>
            <g id="Group_3135">
                <path id="Path_4551" d="M199.317 170.362a.409.409 0 0 0-.41.409v1.157a.41.41 0 1 0 .819 0v-1.157a.409.409 0 0 0-.409-.409z" class="cls-13" transform="translate(-198.908 -170.362)"/>
                <path id="Path_4552" d="M297.435 172.339a.41.41 0 0 0 .41-.41v-1.157a.41.41 0 0 0-.819 0v1.157a.41.41 0 0 0 .409.41z" class="cls-13" transform="translate(-292.024 -170.363)"/>
            </g>
        </g>
    </g>
</svg>
