<svg xmlns="http://www.w3.org/2000/svg" id="class" width="70.762" height="70.762" viewBox="0 0 70.762 70.762">
    <defs>
        <style>
            .cls-3{fill:#cfd8dc}.cls-5{fill:#ff9801}.cls-7{fill:#607d8b}.cls-8{fill:#f57c00}
        </style>
    </defs>
    <g id="Group_2460" transform="translate(1.179 1.179)">
        <path id="Rectangle_988" fill="#00838f" d="M0 0H58.968V35.381H0z" transform="translate(4.718 2.359)"/>
        <path id="Rectangle_989" fill="#00bcd4" d="M0 0H55.43V35.381H0z" transform="translate(4.718 2.359)"/>
        <circle id="Ellipse_244" cx="4.717" cy="4.717" r="4.717" class="cls-3" transform="translate(29.484 44.816)"/>
        <path id="Path_3300" fill="#e91e63" d="M203.8 413.039v-6.234a7.085 7.085 0 0 1 14.152 0v6.234z" transform="translate(-176.675 -345.815)"/>
        <circle id="Ellipse_245" cx="4.717" cy="4.717" r="4.717" class="cls-3" transform="translate(51.892 44.816)"/>
        <path id="Path_3301" d="M365.933 413.039v-6.234a7.085 7.085 0 0 1 14.152 0v6.234z" class="cls-5" transform="translate(-316.4 -345.815)"/>
        <circle id="Ellipse_246" cx="4.717" cy="4.717" r="4.717" class="cls-3" transform="translate(7.076 44.816)"/>
        <path id="Path_3302" fill="#009688" d="M41.667 413.027v-6.234a7.085 7.085 0 0 1 14.152 0v6.234z" transform="translate(-36.949 -345.803)"/>
        <g id="Group_2458">
            <path id="Path_3303" d="M9.892 7.533h63.685a2.359 2.359 0 0 1 2.359 2.359 2.359 2.359 0 0 1-2.359 2.359H9.892a2.359 2.359 0 0 1-2.359-2.359 2.359 2.359 0 0 1 2.359-2.359z" class="cls-7" transform="translate(-7.533 -7.533)"/>
            <path id="Path_3304" d="M9.892 263.533h63.685a2.359 2.359 0 0 1 2.359 2.359 2.359 2.359 0 0 1-2.359 2.359H9.892a2.359 2.359 0 0 1-2.359-2.359 2.359 2.359 0 0 1 2.359-2.359z" class="cls-7" transform="translate(-7.533 -228.152)"/>
        </g>
        <g id="Group_2459">
            <path id="Path_3305" d="M9.83 7.533H70.1a2.3 2.3 0 0 1 2.3 2.3v.123a2.3 2.3 0 0 1-2.3 2.3H9.83a2.3 2.3 0 0 1-2.3-2.3V9.83a2.3 2.3 0 0 1 2.3-2.297z" class="cls-3" transform="translate(-7.533 -7.533)"/>
            <path id="Path_3306" d="M9.83 263.533H70.1a2.3 2.3 0 0 1 2.3 2.3v.123a2.3 2.3 0 0 1-2.3 2.3H9.83a2.3 2.3 0 0 1-2.3-2.3v-.123a2.3 2.3 0 0 1 2.3-2.3z" class="cls-3" transform="translate(-7.533 -228.152)"/>
        </g>
        <path id="Path_3307" d="M273.112 149.613v7.819l-5.861 2.488a8.459 8.459 0 0 1-2.182.6l4.505-1.911v-7.5z" class="cls-8" transform="translate(-229.476 -129.977)"/>
        <path id="Path_3308" d="M202.066 151.112v7.5l-4.505 1.911a9.2 9.2 0 0 1-4.965-.6l-5.861-2.488v-7.819l7.666 3.255 1.5.637a.625.625 0 0 0 .542 0z" class="cls-5" transform="translate(-161.967 -129.978)"/>
        <path id="Path_3309" d="M174.26 83.7l-3.55 1.51-1.84.778-9.164 3.892a.625.625 0 0 1-.542 0L150 85.983l-5.39-2.288a.954.954 0 0 1-.177-1.557.658.658 0 0 1 .177-.118l14.553-6.18a.624.624 0 0 1 .542 0l14.553 6.18a.947.947 0 0 1 0 1.675z" class="cls-8" transform="translate(-125.234 -66.347)"/>
        <path id="Path_3310" d="M170.71 95.353l-1.84.778-9.164 3.892a.625.625 0 0 1-.542 0L150 96.131l-5.39-2.288a.954.954 0 0 1-.177-1.557l11-4.67a.625.625 0 0 1 .542 0l14.553 6.18a.954.954 0 0 1 .177 1.557z" class="cls-5" transform="translate(-125.234 -76.495)"/>
        <path id="Path_3311" d="M8.713 468.333h66.045a1.179 1.179 0 0 1 1.179 1.179v2.359a1.179 1.179 0 0 1-1.179 1.179H8.713a1.179 1.179 0 0 1-1.179-1.179v-2.359a1.179 1.179 0 0 1 1.179-1.179z" class="cls-7" transform="translate(-7.534 -404.648)"/>
        <path id="Path_3312" d="M8.683 468.333H71.25a1.149 1.149 0 0 1 1.149 1.149v2.42a1.149 1.149 0 0 1-1.149 1.149H8.683a1.149 1.149 0 0 1-1.149-1.151v-2.42a1.149 1.149 0 0 1 1.149-1.147z" class="cls-3" transform="translate(-7.534 -404.648)"/>
    </g>
    <g id="Group_2461">
        <path id="Path_3313" d="M67.224 7.076a3.538 3.538 0 0 0 0-7.076H3.538a3.538 3.538 0 0 0 0 7.076h1.179v28.3H3.538a3.538 3.538 0 0 0 0 7.076h63.686a3.538 3.538 0 0 0 0-7.076h-1.18v-28.3zM2.359 3.538a1.181 1.181 0 0 1 1.179-1.179h63.686a1.179 1.179 0 0 1 0 2.359H3.538a1.181 1.181 0 0 1-1.179-1.18zM68.4 38.919a1.181 1.181 0 0 1-1.176 1.181H3.538a1.179 1.179 0 1 1 0-2.359h63.686a1.181 1.181 0 0 1 1.176 1.178zm-4.717-3.538H7.076V7.076h56.609v28.3z"/>
        <path id="Path_3314" d="M137.711 85.874a1.179 1.179 0 0 0 1.179-1.179v-5.774l3.538 1.5v7.051a1.176 1.176 0 0 0 .088.436q.122.191.25.377a1.179 1.179 0 0 0 .382.261l5.864 2.49a10.38 10.38 0 0 0 8.061 0l5.858-2.487a1.18 1.18 0 0 0 .382-.261q.128-.186.25-.377a1.178 1.178 0 0 0 .088-.436v-7.051l4.671-1.985a2.119 2.119 0 0 0 0-3.843l-14.553-6.184a1.859 1.859 0 0 0-1.464 0L137.757 74.6a2.064 2.064 0 0 0-1.226 1.922v8.177a1.18 1.18 0 0 0 1.18 1.175zm23.587.808l-5.137 2.181a8.033 8.033 0 0 1-6.231 0l-5.143-2.184v-5.252l7.524 3.2a1.859 1.859 0 0 0 1.464 0l7.523-3.2v5.255zm-8.255-16.018l13.776 5.854-4.794 2.037h-.01l-8.971 3.812-8.971-3.812h-.01l-4.794-2.037z" transform="translate(-117.661 -58.827)"/>
        <path id="Path_3315" d="M68.4 342.9h-2.356v-1.516a7.889 7.889 0 0 0-4.427-7.009 5.9 5.9 0 1 0-7.657 0 7.89 7.89 0 0 0-4.427 7.009v1.516h-5.9v-1.516a7.889 7.889 0 0 0-4.427-7.009 5.9 5.9 0 1 0-7.657 0 7.89 7.89 0 0 0-4.427 7.009v1.516h-5.9v-1.516a7.889 7.889 0 0 0-4.427-7.009 5.9 5.9 0 1 0-7.657 0 7.89 7.89 0 0 0-4.427 7.009v1.516H2.359A2.361 2.361 0 0 0 0 345.261v2.359a2.361 2.361 0 0 0 2.359 2.359H68.4a2.361 2.361 0 0 0 2.359-2.359v-2.359A2.361 2.361 0 0 0 68.4 342.9zm-14.15-12.971a3.538 3.538 0 1 1 3.538 3.538 3.538 3.538 0 0 1-3.538-3.538zm-2.359 11.457a5.907 5.907 0 0 1 11.794 0v1.514H51.892v-1.516zm-20.048-11.457a3.538 3.538 0 1 1 3.538 3.538 3.538 3.538 0 0 1-3.538-3.538zm-2.359 11.457a5.907 5.907 0 0 1 11.794 0v1.514H29.484v-1.516zM9.435 329.929a3.538 3.538 0 1 1 3.538 3.538 3.538 3.538 0 0 1-3.538-3.538zm-2.359 11.457a5.742 5.742 0 0 1 5.9-5.56 5.742 5.742 0 0 1 5.9 5.56v1.514h-11.8zm-4.717 6.234v-2.359H68.4v2.359z" transform="translate(0 -279.217)"/>
    </g>
</svg>
