<svg xmlns="http://www.w3.org/2000/svg" width="20.861" height="16.886" viewBox="0 0 20.861 16.886">
    <path fill="#1cbce1" d="M16.536 249v1.459a.917.917 0 0 1-.917.917H10V240.8h5.619a.917.917 0 0 1 .917.917V249z" transform="translate(-9.593 -240.322)"/>
    <path fill="#ffcdac" d="M181.956 115.491H180.9a1.321 1.321 0 0 1 1.321 1.321 1.321 1.321 0 0 1-1.321 1.321h-5.1l.774 2.3a2.342 2.342 0 0 1-1.538 2.988l-.715.217-1.123-3.1a4.238 4.238 0 0 0-1.959-2.28l-1.495-.814.027-9.1.951-.373a5.857 5.857 0 0 1 2.138-.4h7.12a1.321 1.321 0 0 1 1.321 1.321 1.321 1.321 0 0 1-1.321 1.321H181a1.321 1.321 0 0 1 1.321 1.321A1.321 1.321 0 0 1 181 112.85h.955a1.321 1.321 0 0 1 1.321 1.321 1.321 1.321 0 0 1-1.32 1.32z" transform="translate(-162.823 -107.159)"/>
    <circle cx=".734" cy=".734" r=".734" fill="#fff" transform="translate(3.714 2.056)"/>
    <path d="M160.817 328.7a.407.407 0 1 1 .288-.119.41.41 0 0 1-.288.119z" transform="translate(-153.874 -321.203)"/>
    <path d="M20.861 104.576a1.731 1.731 0 0 1-1.35 1.686 1.727 1.727 0 0 1-1.439 2.684h-4.533l.593 1.761a2.749 2.749 0 0 1-1.806 3.508l-.715.217a.407.407 0 0 1-.5-.251l-1.123-3.1a3.828 3.828 0 0 0-1.77-2.061l-1.124-.62a1.324 1.324 0 0 1-1.068.542H.407a.407.407 0 0 1-.407-.403V97.972a.407.407 0 0 1 .407-.407h5.619a1.325 1.325 0 0 1 1.144.658L7.745 98a6.239 6.239 0 0 1 2.287-.432h7.12a1.728 1.728 0 0 1 1.435 2.691 1.727 1.727 0 0 1 1.016 2.658 1.731 1.731 0 0 1 1.258 1.659zm-1.728-.913h-4.191a.407.407 0 1 1 0-.815h3.236a.913.913 0 1 0 0-1.827h-3.236a.407.407 0 0 1 0-.815h2.209a.913.913 0 1 0 0-1.827h-7.12a5.427 5.427 0 0 0-1.989.376l-.692.271v4a.407.407 0 0 1-.815 0v-4.137a.51.51 0 0 0-.51-.51H.815v9.752h5.211a.51.51 0 0 0 .51-.51v-1.383a.407.407 0 0 1 .815 0v1.379l1.255.683a4.642 4.642 0 0 1 2.147 2.5l.992 2.741.345-.1a1.934 1.934 0 0 0 1.271-2.468l-.774-2.3a.407.407 0 0 1 .386-.537h5.1a.913.913 0 1 0 0-1.827h-3.131a.407.407 0 1 1 0-.815h4.191a.913.913 0 0 0 0-1.827z" transform="translate(0 -97.564)"/>
    <path d="M82.3 417.813a1.141 1.141 0 1 1 1.141-1.141 1.143 1.143 0 0 1-1.141 1.141zm0-1.468a.326.326 0 1 0 .326.326.327.327 0 0 0-.326-.326z" transform="translate(-77.855 -413.882)"/>
</svg>
