<svg xmlns="http://www.w3.org/2000/svg" width="26.445" height="22.313" viewBox="0 0 26.445 22.313">
    <defs>
        <style>
            .cls-3{fill:#fff}
        </style>
    </defs>
    <g id="XMLID_81_" transform="translate(0 -40)">
        <g id="XMLID_2381_" transform="translate(8.058 46.646)">
            <path id="XMLID_2382_" fill="#1cbce1" d="M158.066 168.667h13.739a2.066 2.066 0 0 1 2.066 2.066v7.936a2.066 2.066 0 0 1-2.066 2.066h-2.662l-1.78 3.083-1.78-3.083h-7.517a2.066 2.066 0 0 1-2.066-2.066v-7.936a2.066 2.066 0 0 1 2.066-2.066z" transform="translate(-156 -168.667)"/>
        </g>
        <path id="XMLID_1336_" fill="#feda00" d="M25.805 50H12.066A2.066 2.066 0 0 0 10 52.066V60a2.066 2.066 0 0 0 2.066 2.066h.723l1.78 3.083 1.78-3.083h9.456A2.066 2.066 0 0 0 27.871 60v-7.934A2.066 2.066 0 0 0 25.805 50z" transform="translate(-9.483 -9.483)"/>
        <g id="XMLID_1370_" transform="translate(3.254 45.311)">
            <circle id="XMLID_1373_" cx="1.24" cy="1.24" r="1.24" class="cls-3" transform="translate(9.917)"/>
            <circle id="XMLID_1372_" cx="1.24" cy="1.24" r="1.24" class="cls-3" transform="translate(4.958)"/>
            <circle id="XMLID_1371_" cx="1.24" cy="1.24" r="1.24" class="cls-3"/>
        </g>
        <g id="XMLID_1184_" transform="translate(0 40)">
            <path id="XMLID_1199_" d="M23.863 46.129H18.9v-3.546A2.585 2.585 0 0 0 16.322 40h-4.546a.517.517 0 0 0 0 1.033h4.545a1.551 1.551 0 0 1 1.55 1.55v7.936a1.551 1.551 0 0 1-1.55 1.55H6.866a.517.517 0 0 0-.447.258l-1.333 2.307-1.333-2.308a.517.517 0 0 0-.447-.258h-.723a1.551 1.551 0 0 1-1.55-1.55v-7.935a1.551 1.551 0 0 1 1.55-1.55h4.545a.517.517 0 0 0 0-1.033H2.583A2.585 2.585 0 0 0 0 42.583v7.936A2.585 2.585 0 0 0 2.583 53.1h.425l1.631 2.825a.516.516 0 0 0 .895 0l1.63-2.825h.377v3.547a2.585 2.585 0 0 0 2.583 2.583h7.219l1.631 2.825a.516.516 0 0 0 .895 0L21.5 59.23h2.364a2.585 2.585 0 0 0 2.583-2.583v-7.935a2.585 2.585 0 0 0-2.584-2.583zm1.55 10.518a1.551 1.551 0 0 1-1.55 1.55H21.2a.517.517 0 0 0-.447.258l-1.333 2.308-1.333-2.308a.517.517 0 0 0-.447-.258h-7.516a1.551 1.551 0 0 1-1.55-1.55V53.1h7.748a2.585 2.585 0 0 0 2.578-2.582v-3.356h4.958a1.551 1.551 0 0 1 1.55 1.55z" transform="translate(0 -40)"/>
            <path id="XMLID_1211_" d="M248.512 134.576a1.756 1.756 0 1 0-1.756 1.756 1.758 1.758 0 0 0 1.756-1.756zm-2.479 0a.723.723 0 1 1 .723.723.724.724 0 0 1-.723-.723z" transform="translate(-232.346 -128.026)"/>
            <path id="XMLID_1221_" d="M150.756 136.332a1.756 1.756 0 1 0-1.756-1.756 1.758 1.758 0 0 0 1.756 1.756zm0-2.479a.723.723 0 1 1-.723.723.724.724 0 0 1 .723-.723z" transform="translate(-141.304 -128.026)"/>
            <path id="XMLID_1226_" d="M53 134.576a1.756 1.756 0 1 0 1.756-1.756A1.758 1.758 0 0 0 53 134.576zm2.479 0a.723.723 0 1 1-.723-.723.724.724 0 0 1 .723.723z" transform="translate(-50.262 -128.026)"/>
            <path id="XMLID_1227_" d="M173.517 41.033a.517.517 0 1 0-.365-.151.52.52 0 0 0 .365.151z" transform="translate(-164.064 -40)"/>
        </g>
    </g>
</svg>
