<svg xmlns="http://www.w3.org/2000/svg" width="20.861" height="20.861" viewBox="0 0 20.861 20.861">
    <path fill="#fedb00" d="M16.536 243.181v-1.459a.917.917 0 0 0-.917-.917H10v10.567h5.619a.917.917 0 0 0 .917-.917v-7.274z" transform="translate(-9.593 -230.993)"/>
    <path fill="#ffcdac" d="M181.956 115.712H180.9a1.321 1.321 0 0 0 1.321-1.321 1.321 1.321 0 0 0-1.321-1.321h-5.1l.774-2.3a2.342 2.342 0 0 0-1.538-2.988l-.715-.217-1.123 3.1a4.238 4.238 0 0 1-1.959 2.28l-1.495.814.027 9.1.951.373a5.857 5.857 0 0 0 2.138.4h7.12a1.321 1.321 0 0 0 1.321-1.321 1.321 1.321 0 0 0-1.326-1.311H181a1.321 1.321 0 0 0 1.321-1.321 1.321 1.321 0 0 0-1.321-1.326h.955a1.321 1.321 0 0 0 1.321-1.321 1.321 1.321 0 0 0-1.32-1.32z" transform="translate(-162.823 -103.183)"/>
    <circle cx=".734" cy=".734" r=".734" fill="#fff" transform="translate(3.714 17.338)"/>
    <path d="M160.817 327.89a.407.407 0 1 0 .288.119.41.41 0 0 0-.288-.119z" transform="translate(-153.874 -314.53)"/>
    <path d="M20.861 107.438a1.731 1.731 0 0 0-1.35-1.686 1.727 1.727 0 0 0-1.439-2.684h-4.533l.593-1.761a2.749 2.749 0 0 0-1.806-3.507l-.715-.217a.407.407 0 0 0-.5.251l-1.123 3.1A3.828 3.828 0 0 1 8.216 103l-1.122.611a1.324 1.324 0 0 0-1.068-.542H.407a.407.407 0 0 0-.407.407v10.567a.407.407 0 0 0 .407.407h5.619a1.325 1.325 0 0 0 1.144-.658l.575.226a6.239 6.239 0 0 0 2.287.432h7.12a1.728 1.728 0 0 0 1.435-2.691A1.727 1.727 0 0 0 19.6 109.1a1.731 1.731 0 0 0 1.261-1.662zm-1.728.913h-4.191a.407.407 0 1 0 0 .815h3.236a.913.913 0 1 1 0 1.827h-3.236a.407.407 0 0 0 0 .815h2.209a.913.913 0 1 1 0 1.827h-7.12a5.427 5.427 0 0 1-1.989-.376l-.692-.271v-4a.407.407 0 0 0-.815 0v4.135a.51.51 0 0 1-.51.51H.815v-9.752h5.211a.51.51 0 0 1 .51.51v1.383a.407.407 0 0 0 .815 0V104.4l1.255-.683a4.642 4.642 0 0 0 2.147-2.5l.992-2.741.345.1a1.934 1.934 0 0 1 1.271 2.468l-.774 2.3a.407.407 0 0 0 .386.537h5.1a.913.913 0 0 1 0 1.827h-3.131a.407.407 0 1 0 0 .815h4.191a.913.913 0 0 1 0 1.827z" transform="translate(0 -93.589)"/>
    <path d="M82.3 415.53a1.141 1.141 0 1 0 1.141 1.141 1.143 1.143 0 0 0-1.141-1.141zm0 1.468a.326.326 0 1 1 .326-.326.327.327 0 0 1-.326.328z" transform="translate(-77.855 -398.599)"/>
    <path d="M289.226.815a.408.408 0 0 0 .407-.407.407.407 0 1 0-.7.288.41.41 0 0 0 .293.119z" transform="translate(-277.051)"/>
    <path d="M289.227 37.333a.408.408 0 0 0-.407.407v.991a.407.407 0 1 0 .815 0v-.991a.407.407 0 0 0-.408-.407z" transform="translate(-277.052 -35.812)"/>
    <path d="M358.393 131.673a.407.407 0 0 0 .407.407h2.513a.407.407 0 0 0 0-.815H358.8a.407.407 0 0 0-.407.408z" transform="translate(-343.79 -125.918)"/>
    <path d="M157.961 132.054h2.513a.407.407 0 1 0 0-.815h-2.513a.407.407 0 0 0 0 .815z" transform="translate(-151.135 -125.892)"/>
    <path d="M204.468 47.472a.407.407 0 1 0 .576-.576l-1.186-1.186a.407.407 0 1 0-.576.576z" transform="translate(-194.884 -43.732)"/>
    <path d="M345.761 47.61a.406.406 0 0 0 .288-.119l1.186-1.186a.407.407 0 0 0-.576-.576l-1.186 1.186a.407.407 0 0 0 .288.7z" transform="translate(-331.282 -43.751)"/>
</svg>
