<svg xmlns="http://www.w3.org/2000/svg" width="24.33" height="24.201" viewBox="0 0 24.33 24.201">
    <path stroke="#fed700" stroke-width="0.7px" d="M23.008 3.691l-3.2-3.2A1.674 1.674 0 0 0 18.619 0a1.674 1.674 0 0 0-1.191.493L1.551 16.369a1.077 1.077 0 0 0-.361.59l-1.164 5.22a1.086 1.086 0 0 0 1.06 1.321 1.072 1.072 0 0 0 .236-.026l5.22-1.164a1.077 1.077 0 0 0 .592-.364L23.008 6.074a1.687 1.687 0 0 0 0-2.383zm-7.569 1.86l2.511 2.51-9.776 9.776-2.51-2.51zm-12.2 12.2l.891-.891 2.51 2.51-.892.892-3.23.72zM19.485 6.526l-2.511-2.51 1.644-1.644 2.511 2.51z" transform="translate(.356 .35)"/>
</svg>
