<svg xmlns="http://www.w3.org/2000/svg" width="46" height="53" viewBox="0 0 46 53">
    <defs>
        <clipPath id="ci6q44asha">
            <path fill="none" d="M30.847-297.592h-2.655a8.408 8.408 0 0 0 .567-5.907 7.1 7.1 0 0 0-6.712-5.1 8.392 8.392 0 0 0-2.894.537 15.009 15.009 0 0 0-3.341 1.671 14.323 14.323 0 0 0-3.341-1.671 8.52 8.52 0 0 0-2.894-.537 7.1 7.1 0 0 0-6.712 5.1 8.658 8.658 0 0 0 .835 6.444H.477a.471.471 0 0 0-.477.477.471.471 0 0 0 .477.477h3.789a6.3 6.3 0 0 0 .537.805c3.1 4.475 9.845 9.338 11.068 9.636v.03a.092.092 0 0 0 .06-.03h.089v-.03c1.044-.507 7.518-4.684 10.919-9.636a10.975 10.975 0 0 0 .835-1.342h3.132a.471.471 0 0 0 .477-.477.5.5 0 0 0-.536-.447zm-4.773 1.76c-3.162 4.624-8.98 8.353-10.232 9.159-1.283-.805-7.07-4.564-10.262-9.159l-.18-.268h4.385a.492.492 0 0 0 .447-.268l2-3.938 3.132 8.025a.489.489 0 0 0 .447.3h.03a.475.475 0 0 0 .447-.358l2.745-9.4L20.495-297a.486.486 0 0 0 .388.328.517.517 0 0 0 .477-.209l1.163-1.7.984 1.671a.476.476 0 0 0 .418.239h2.685c-.179.302-.358.571-.537.839zm1.074-1.76h-2.924L23-299.68a.476.476 0 0 0-.418-.239.451.451 0 0 0-.418.209l-1.014 1.492-1.641-5.34a.554.554 0 0 0-.477-.358.511.511 0 0 0-.477.358l-2.774 9.576-3.013-7.7a.449.449 0 0 0-.418-.3.463.463 0 0 0-.447.268l-2.357 4.624H4.8a8.05 8.05 0 0 1-.984-6.145 6.1 6.1 0 0 1 5.787-4.385 7.936 7.936 0 0 1 2.566.477 14.5 14.5 0 0 1 3.371 1.73.454.454 0 0 0 .6 0 13.006 13.006 0 0 1 3.371-1.73 7.212 7.212 0 0 1 2.566-.477 6.124 6.124 0 0 1 5.787 4.385 7.843 7.843 0 0 1-.717 5.643z" transform="translate(0 308.6)"/>
        </clipPath>
    </defs>
    <g>
        <path fill="#fed200" d="M36.282 0a6 6 0 0 1 5.2 3l9.793 17a6 6 0 0 1 0 5.99L41.481 43a6 6 0 0 1-5.2 3H16.718a6 6 0 0 1-5.2-3L1.725 26a6 6 0 0 1 0-5.99L11.519 3a6 6 0 0 1 5.2-3z" transform="translate(-685 -535.5) rotate(90 97.75 633.25)"/>
        <g>
            <g clip-path="url(#ci6q44asha)" transform="translate(-685 -535.5) translate(692 861.114) translate(0 -308.6)">
                <path d="M-5-313.6h32.129v23.717H-5z" transform="translate(4.627 313.227)"/>
            </g>
        </g>
    </g>
</svg>
