<svg xmlns="http://www.w3.org/2000/svg" width="17.748" height="17.748" viewBox="0 0 17.748 17.748">
    <path fill="#fff" d="M8.874 0a8.874 8.874 0 1 0 8.874 8.874A8.884 8.884 0 0 0 8.874 0zm.577 14.139c-.422.07-1.261.246-1.687.281a1.038 1.038 0 0 1-.908-.473 1.109 1.109 0 0 1-.134-1.016L8.4 8.32H6.656A2.085 2.085 0 0 1 8.3 6.381 6.422 6.422 0 0 1 9.983 6.1a1.338 1.338 0 0 1 .908.473 1.109 1.109 0 0 1 .134 1.016L9.349 12.2h1.744a1.964 1.964 0 0 1-1.641 1.937zm.532-8.593a1.109 1.109 0 1 1 1.109-1.109 1.109 1.109 0 0 1-1.109 1.109z"/>
</svg>
