<svg id="door" xmlns="http://www.w3.org/2000/svg" width="45.765" height="45.764" viewBox="0 0 45.765 45.764">
  <path id="Path_6067" data-name="Path 6067" d="M38.166,27.985H60.428V63.136H38.166Z" transform="translate(-26.885 -21.276)" fill="#2487ff"/>
  <path id="Path_6068" data-name="Path 6068" d="M30.167,19.985v39.53h3.592V23.577H54.116V59.515h3.592V19.985Z" transform="translate(-22.478 -16.868)" fill="#feda00"/>
  <path id="Path_6069" data-name="Path 6069" d="M58.022,106.265H13.83a.786.786,0,1,0,0,1.572H58.022a.786.786,0,1,0,0-1.572Z" transform="translate(-13.044 -64.404)" fill="#2487ff"/>
  <path id="Path_6070" data-name="Path 6070" d="M51.833,58.986l20.656-2.331V17.125L51.833,14.794Z" transform="translate(-34.415 -14.008)" fill="#feda00"/>
  <circle id="Ellipse_293" data-name="Ellipse 293" cx="1.553" cy="1.553" r="1.553" transform="translate(20.038 21.329)" fill="#c3c7f4"/>
  <g id="Group_4529" data-name="Group 4529">
    <path id="Path_6071" data-name="Path 6071" d="M66.492,54.9H60.374V16.161a.785.785,0,0,0-.7-.78l-8.567-.967a.786.786,0,1,0-.176,1.562l7.869.888V54.988L39.718,57.143V14.708l3.99.449a.786.786,0,0,0,.176-1.562l-4.864-.546a.786.786,0,0,0-.874.781v1.545H29.2a.786.786,0,0,0-.786.786V40.978a.786.786,0,1,0,1.572,0V16.947h8.157V58.022a.786.786,0,0,0,.786.786.724.724,0,0,0,.09,0l20.611-2.326h6.86a.786.786,0,0,0,0-1.572Z" transform="translate(-21.514 -13.044)" fill="#860000"/>
    <path id="Path_6072" data-name="Path 6072" d="M27.169,62.173H25.111V27.807h1.834a.786.786,0,0,0,0-1.572h-2.62a.786.786,0,0,0-.786.786V62.173H21.518V53.746a.786.786,0,0,0-1.572,0v8.426H13.83a.786.786,0,1,0,0,1.572H27.169a.786.786,0,1,0,0-1.572Z" transform="translate(-13.044 -20.312)" fill="#860000"/>
    <path id="Path_6073" data-name="Path 6073" d="M29.2,80.948a.786.786,0,0,0,.786-.786v-.168a.786.786,0,0,0-1.572,0v.168A.786.786,0,0,0,29.2,80.948Z" transform="translate(-21.514 -49.497)" fill="#860000"/>
    <path id="Path_6074" data-name="Path 6074" d="M68.9,16.656l.518.058a.739.739,0,0,0,.09.005.786.786,0,0,0,.087-1.567l-.517-.058a.786.786,0,1,0-.176,1.561Z" transform="translate(-43.426 -14.17)" fill="#860000"/>
    <path id="Path_6075" data-name="Path 6075" d="M55.917,61.131a2.339,2.339,0,1,0,2.339-2.339A2.339,2.339,0,0,0,55.917,61.131Zm3.106,0a.767.767,0,1,1-.767-.767.767.767,0,0,1,.767.767Z" transform="translate(-36.665 -38.249)" fill="#860000"/>
  </g>
</svg>
