<svg xmlns="http://www.w3.org/2000/svg" width="606.453" height="766.728" viewBox="0 0 606.453 766.728">
    <path fill="#4c68e3" d="M955.434-101.1s150.9 197.355 179.5 307.941c17.155 66.342 29.686 130.13-27.638 206.9-99.806 128.98 17.8 227.53 6.673 251.883 46.508-1.067 228.217 0 228.217 0s-22.9-62.368 24.648-95.152c11.33-7.813 24.794-15.534 51.153-18.289 30.59-3.2 74.872-.954 94.59-4.572 43.465-7.977 46.373-19.972 48.067-25.975 2.232-9.775 3.515-16.605-15.06-35.18-30.578-36.293-30.814-47.184-32.292-70.586.142-46.646 47.352-86.746 47.352-86.746s.86-169.617 0-430.227z" transform="translate(-955.434 101.101)"/>
</svg>
