<svg xmlns="http://www.w3.org/2000/svg" width="14.002" height="11.998" viewBox="0 0 14.002 11.998">
    <defs>
        <style>
            .cls-1{fill:#fed900}
        </style>
    </defs>
    <g id="noun_sidebar_385157" transform="translate(-583.3 -100)">
        <path id="Path_583" d="M684.149 100a.849.849 0 0 0 0 1.7h5.087a.849.849 0 1 0 0-1.7z" class="cls-1" transform="translate(-92.784)"/>
        <path id="Path_584" d="M583.468 137.114a.453.453 0 0 0-.036.1.987.987 0 0 0-.072.187c-.012.039-.03.071-.042.11a.672.672 0 0 0 0 .11c0 .032-.018.065-.018.1s.018.065.018.1-.006.071 0 .11a.823.823 0 0 0 .042.11.988.988 0 0 0 .072.187c.018.032.018.065.036.1l2 3.227a.982.982 0 0 0 .834.478.93.93 0 0 0 .552-.181 1.124 1.124 0 0 0 .276-1.491l-.966-1.556H596.3a1.081 1.081 0 0 0 0-2.156h-10.132l.966-1.556a1.129 1.129 0 0 0-.276-1.491.959.959 0 0 0-1.386.3l-2 3.227z" class="cls-1" transform="translate(0 -31.71)"/>
        <path id="Path_585" d="M689.236 266.7h-5.087a.847.847 0 1 0 0 1.694h5.087a.847.847 0 1 0 0-1.694z" class="cls-1" transform="translate(-92.784 -156.396)"/>
    </g>
</svg>
