<svg xmlns="http://www.w3.org/2000/svg" width="50.474" height="56.023" viewBox="0 0 50.474 56.023">
  <g id="Group_4654" data-name="Group 4654" transform="translate(12557 24191.492)">
    <path id="Path_6173" data-name="Path 6173" d="M49.058,128.9a4.275,4.275,0,0,1-4.275,4.275H12.722a2.137,2.137,0,0,1-2.137-2.137V88.288a2.137,2.137,0,0,1,2.137-2.137H44.784a4.275,4.275,0,0,1,4.275,4.275Z" transform="translate(-12555.585 -24277.643)" fill="#125d9d" opacity="0.4"/>
    <g id="passport" transform="translate(-12567.585 -24194)">
      <g id="Group_4652" data-name="Group 4652" transform="translate(36.916 31.263)">
        <rect id="Rectangle_1120" data-name="Rectangle 1120" width="14.962" height="2.137" transform="matrix(-0.259, 0.966, -0.966, -0.259, 5.937, 8.809)" fill="#c8beb2"/>
        <rect id="Rectangle_1121" data-name="Rectangle 1121" width="4.275" height="2.137" transform="matrix(-0.259, 0.966, -0.966, -0.259, 8.15, 0.553)" fill="#c8beb2"/>
        <rect id="Rectangle_1124" data-name="Rectangle 1124" width="14.962" height="2.137" transform="matrix(-0.259, 0.966, -0.966, -0.259, 12.126, 10.47)" fill="#c8beb2"/>
      </g>
      <path id="Path_6163" data-name="Path 6163" d="M49.058,128.9a4.275,4.275,0,0,1-4.275,4.275H12.722a2.137,2.137,0,0,1-2.137-2.137V88.288a2.137,2.137,0,0,1,2.137-2.137H44.784a4.275,4.275,0,0,1,4.275,4.275Z" transform="translate(0 -74.643)" fill="#125d9d"/>
      <path id="Path_6164" data-name="Path 6164" d="M71.41,134.151a12.825,12.825,0,1,0,12.825,12.825A12.825,12.825,0,0,0,71.41,134.151Zm9.491,8.015H76.279a20.761,20.761,0,0,0-1.837-5.386A10.667,10.667,0,0,1,80.9,142.166Zm-6.285,4.809a22.722,22.722,0,0,1-.17,2.672H68.373a21.188,21.188,0,0,1,0-5.344h6.077A22.932,22.932,0,0,1,74.616,146.976Zm-5.888-4.809A17.737,17.737,0,0,1,71.1,136.32c.105,0,.2-.031.311-.031s.207.029.314.032a17.76,17.76,0,0,1,2.368,5.846Zm-.35-5.386a20.824,20.824,0,0,0-1.836,5.386H61.918A10.669,10.669,0,0,1,68.378,136.78ZM61.1,144.3h5.116a25.214,25.214,0,0,0-.151,2.672,24.807,24.807,0,0,0,.154,2.672H61.1a9.6,9.6,0,0,1,0-5.344Zm.817,7.481h4.629a21.193,21.193,0,0,0,1.827,5.385A10.668,10.668,0,0,1,61.918,151.785Zm9.18,5.847a17.889,17.889,0,0,1-2.368-5.847h5.358a17.854,17.854,0,0,1-2.369,5.847c-.105,0-.2.031-.31.031S71.2,157.635,71.1,157.631Zm3.347-.461a21.134,21.134,0,0,0,1.827-5.385H80.9A10.669,10.669,0,0,1,74.446,157.17Zm7.272-7.523H76.6a24.913,24.913,0,0,0,.154-2.672A25.218,25.218,0,0,0,76.6,144.3h5.115a9.6,9.6,0,0,1,0,5.344Z" transform="translate(-41.588 -116.231)" fill="#e7be29"/>
      <g id="Group_4653" data-name="Group 4653" transform="translate(18.4 49.007)">
        <path id="Path_6165" data-name="Path 6165" d="M69.086,370.322v-3.06H70.24a2.783,2.783,0,0,1,.465.029.925.925,0,0,1,.378.143.752.752,0,0,1,.245.3,1,1,0,0,1-.156,1.078,1.191,1.191,0,0,1-.9.27h-.785v1.244Zm.4-1.605h.791a.839.839,0,0,0,.557-.146.52.52,0,0,0,.165-.411.553.553,0,0,0-.1-.329.454.454,0,0,0-.256-.181,1.734,1.734,0,0,0-.378-.027h-.783Z" transform="translate(-69.086 -367.207)" fill="#fff"/>
        <path id="Path_6166" data-name="Path 6166" d="M85.539,370.322l1.175-3.06h.436l1.252,3.06h-.461l-.357-.927h-1.28l-.336.927Zm.883-1.257h1.037l-.319-.848q-.146-.386-.217-.635a3.905,3.905,0,0,1-.165.584Z" transform="translate(-83.341 -367.207)" fill="#fff"/>
        <path id="Path_6167" data-name="Path 6167" d="M108.367,369l.382-.033a.842.842,0,0,0,.126.377.69.69,0,0,0,.308.238,1.166,1.166,0,0,0,.47.091,1.125,1.125,0,0,0,.409-.069.568.568,0,0,0,.264-.189.438.438,0,0,0,.087-.262.4.4,0,0,0-.083-.252.62.62,0,0,0-.276-.181,5.438,5.438,0,0,0-.545-.149,2.774,2.774,0,0,1-.591-.191.825.825,0,0,1-.327-.285.7.7,0,0,1-.108-.381.778.778,0,0,1,.131-.433.814.814,0,0,1,.384-.306,1.457,1.457,0,0,1,.561-.1,1.533,1.533,0,0,1,.6.11.866.866,0,0,1,.4.322.926.926,0,0,1,.15.482l-.388.029a.627.627,0,0,0-.212-.438.825.825,0,0,0-.533-.148.856.856,0,0,0-.535.135.4.4,0,0,0-.168.325.348.348,0,0,0,.119.271,1.611,1.611,0,0,0,.61.218,4.06,4.06,0,0,1,.677.2.929.929,0,0,1,.394.312.761.761,0,0,1,.127.435.832.832,0,0,1-.14.46.921.921,0,0,1-.4.336,1.4,1.4,0,0,1-.59.12,1.763,1.763,0,0,1-.7-.121.975.975,0,0,1-.44-.364A1.034,1.034,0,0,1,108.367,369Z" transform="translate(-103.12 -366.867)" fill="#fff"/>
        <path id="Path_6168" data-name="Path 6168" d="M129.711,369l.382-.033a.842.842,0,0,0,.126.377.69.69,0,0,0,.308.238,1.166,1.166,0,0,0,.47.091,1.125,1.125,0,0,0,.409-.069.568.568,0,0,0,.264-.189.438.438,0,0,0,.087-.262.4.4,0,0,0-.083-.252.62.62,0,0,0-.276-.181,5.437,5.437,0,0,0-.545-.149,2.774,2.774,0,0,1-.591-.191.826.826,0,0,1-.327-.285.7.7,0,0,1-.108-.381.778.778,0,0,1,.131-.433.814.814,0,0,1,.384-.306,1.456,1.456,0,0,1,.561-.1,1.533,1.533,0,0,1,.6.11.866.866,0,0,1,.4.322.926.926,0,0,1,.15.482l-.388.029a.627.627,0,0,0-.212-.438.825.825,0,0,0-.533-.148.856.856,0,0,0-.535.135.4.4,0,0,0-.168.325.348.348,0,0,0,.119.271,1.611,1.611,0,0,0,.611.218,4.06,4.06,0,0,1,.677.2.929.929,0,0,1,.394.312.761.761,0,0,1,.127.435.832.832,0,0,1-.14.46.921.921,0,0,1-.4.336,1.4,1.4,0,0,1-.59.12,1.763,1.763,0,0,1-.7-.121.975.975,0,0,1-.44-.364A1.033,1.033,0,0,1,129.711,369Z" transform="translate(-121.612 -366.867)" fill="#fff"/>
        <path id="Path_6169" data-name="Path 6169" d="M152.086,370.322v-3.06h1.154a2.783,2.783,0,0,1,.465.029.926.926,0,0,1,.378.143.752.752,0,0,1,.245.3,1,1,0,0,1-.156,1.078,1.191,1.191,0,0,1-.9.27h-.785v1.244Zm.4-1.605h.791a.839.839,0,0,0,.557-.146.52.52,0,0,0,.165-.411.553.553,0,0,0-.1-.329.454.454,0,0,0-.256-.181,1.734,1.734,0,0,0-.378-.027h-.783v1.094Z" transform="translate(-140.998 -367.207)" fill="#fff"/>
        <path id="Path_6170" data-name="Path 6170" d="M172.508,368.478a1.663,1.663,0,0,1,.409-1.193,1.392,1.392,0,0,1,1.056-.431,1.466,1.466,0,0,1,.764.2,1.323,1.323,0,0,1,.519.565,1.833,1.833,0,0,1,.178.821,1.8,1.8,0,0,1-.188.833,1.282,1.282,0,0,1-.532.556,1.52,1.52,0,0,1-.743.189,1.447,1.447,0,0,1-.772-.209,1.342,1.342,0,0,1-.516-.57A1.721,1.721,0,0,1,172.508,368.478Zm.417.006a1.225,1.225,0,0,0,.3.871,1.038,1.038,0,0,0,1.5,0,1.3,1.3,0,0,0,.3-.912,1.569,1.569,0,0,0-.126-.652.969.969,0,0,0-.37-.432,1,1,0,0,0-.546-.153,1.035,1.035,0,0,0-.74.3A1.318,1.318,0,0,0,172.925,368.484Z" transform="translate(-158.692 -366.854)" fill="#fff"/>
        <path id="Path_6171" data-name="Path 6171" d="M198.367,370.322v-3.06h1.357a1.806,1.806,0,0,1,.622.082.681.681,0,0,1,.34.291.87.87,0,0,1,.127.461.769.769,0,0,1-.211.549,1.066,1.066,0,0,1-.651.284,1.054,1.054,0,0,1,.244.152,2.109,2.109,0,0,1,.336.407l.532.833h-.509l-.4-.637q-.178-.276-.292-.422a.921.921,0,0,0-.206-.2.611.611,0,0,0-.185-.081,1.23,1.23,0,0,0-.225-.015h-.47v1.359h-.4Zm.4-1.71h.87a1.3,1.3,0,0,0,.434-.057.461.461,0,0,0,.238-.184.5.5,0,0,0,.081-.275.456.456,0,0,0-.158-.357.738.738,0,0,0-.5-.14h-.969v1.012Z" transform="translate(-181.097 -367.207)" fill="#fff"/>
        <path id="Path_6172" data-name="Path 6172" d="M220.141,370.322v-2.7h-1.008v-.361h2.425v.361h-1.012v2.7Z" transform="translate(-199.088 -367.207)" fill="#fff"/>
      </g>
    </g>
  </g>
</svg>
