<svg xmlns="http://www.w3.org/2000/svg" width="21.337" height="21.336" viewBox="0 0 21.337 21.336">
    <defs>
        <style>
            .cls-1{fill:#fed200}
        </style>
    </defs>
    <g id="recipe" transform="translate(-31.991 -31.998)">
        <path id="Path_4765" d="M49.136 33.523a4.149 4.149 0 0 0-1.509.28 6.045 6.045 0 0 1 .909 1.9.381.381 0 1 1-.734.2 5.335 5.335 0 0 0-8.917-2.345 4.953 4.953 0 0 1 2.251 4.149.381.381 0 1 1-.762 0 4.191 4.191 0 1 0-5.037 4.105.381.381 0 0 1 .3.31l1.25 7.4H39.2l-.349-4.922v-.027a.381.381 0 0 1 .761-.027l.356 4.98h2.312v-4.193a.381.381 0 0 1 .762 0v4.191h2.312l.356-4.98a.381.381 0 0 1 .761.027v.027l-.352 4.926h2.317l1.25-7.4a.381.381 0 0 1 .3-.31 4.191 4.191 0 0 0-.846-8.3z" class="cls-1"/>
        <path id="Path_4766" d="M136 416h11.43v3.048H136z" class="cls-1" transform="translate(-99.055 -365.714)"/>
    </g>
</svg>
