<svg xmlns="http://www.w3.org/2000/svg" width="21.369" height="21.369" viewBox="0 0 21.369 21.369">
    <defs>
        <style>
            .cls-1{fill:#fed200}
        </style>
    </defs>
    <g id="rocket" transform="translate(-.001 -.001)">
        <path id="Path_4753" d="M73.216 283.706a.627.627 0 0 0 .117.724l.153.153c.442-.524.958-1.093 1.583-1.718.044-.044.09-.066.134-.106l-.985-.985c-.573 1.035-.907 1.743-1.002 1.932zm0 0" class="cls-1" transform="translate(-70.095 -270.012)"/>
        <path id="Path_4754" d="M164.606 389.7c-.627.627-1.194 1.143-1.715 1.586l.207.207a.626.626 0 0 0 .729.114c.324-.167.834-.407 1.917-1.01l-1.031-1.031c-.041.041-.063.086-.107.134zm0 0" class="cls-1" transform="translate(-156.091 -373.302)"/>
        <path id="Path_4755" d="M65.281 311.495c-.452-.452-1.725-.047-2.322.551a16.649 16.649 0 0 0-3.308 4.254.626.626 0 0 0 .837.836 16.77 16.77 0 0 0 4.242-3.319c.657-.658.981-1.892.552-2.321zm0 0" class="cls-1" transform="translate(-57.1 -298.307)"/>
        <path id="Path_4756" d="M1.955 165.283l-1.771 1.771a.626.626 0 0 0 .6 1.048 5.144 5.144 0 0 1 2.366-.22 33.594 33.594 0 0 1 2.592-3.954c-.526-.341-2.281-.151-3.787 1.355zm0 0" class="cls-1" transform="translate(0 -156.947)"/>
        <path id="Path_4757" d="M245.984 382.081a.625.625 0 0 0 .724-.116l1.771-1.771c1.371-1.371 1.612-3.141 1.3-3.7a35.729 35.729 0 0 1-3.957 2.572 7.671 7.671 0 0 1-.177 2.366.625.625 0 0 0 .339.649zm0 0" class="cls-1" transform="translate(-235.387 -360.777)"/>
        <path id="Path_4758" d="M285.193 137.858a1.878 1.878 0 1 0 2.656 0 1.88 1.88 0 0 0-2.656 0zm0 0" class="cls-1" transform="translate(-272.763 -131.577)"/>
        <path id="Path_4759" d="M392.921.612a.625.625 0 0 0-.578-.577 12.377 12.377 0 0 0-4.57.532 5.256 5.256 0 0 0 1.557 3.058 5.239 5.239 0 0 0 3.118 1.555 12.946 12.946 0 0 0 .473-4.568zm0 0" class="cls-1" transform="translate(-371.588)"/>
        <path id="Path_4760" d="M126.424 27.5a6.577 6.577 0 0 1-1.882-3.5c-3.759 1.542-7.358 4.909-10.2 9.639l1.413 1.413a2.637 2.637 0 0 1 2.88.248 2.634 2.634 0 0 1 .247 2.88l1.459 1.459c3.639-2.193 7.876-5.649 9.678-10.246a6.546 6.546 0 0 1-3.595-1.893zm-.886 5.312a3.13 3.13 0 1 1 0-4.427 3.134 3.134 0 0 1 0 4.431zm0 0" class="cls-1" transform="translate(-109.567 -22.993)"/>
    </g>
</svg>
