<svg xmlns="http://www.w3.org/2000/svg" width="17.239" height="17.239" viewBox="0 0 17.239 17.239">
    <defs>
        <clipPath id="vrt5z53kla">
            <path fill="#fed800" stroke="#c1c1c1" d="M17.042-495.911l-4.864-4.864a6.88 6.88 0 0 0-.453-9.217 6.878 6.878 0 0 0-9.716 0 6.878 6.878 0 0 0 0 9.716 6.88 6.88 0 0 0 9.217.453l4.864 4.864a.673.673 0 0 0 .952 0 .673.673 0 0 0 0-.952zm-6.269-5.317a5.53 5.53 0 0 1-7.811 0 5.53 5.53 0 0 1 0-7.811 5.53 5.53 0 0 1 7.811 0 5.53 5.53 0 0 1 0 7.811z" transform="translate(0 512)"/>
        </clipPath>
    </defs>
    <g clip-path="url(#vrt5z53kla)">
        <path fill="#fed800" d="M-5-517h17.576v17.576H-5z" transform="translate(4.832 516.832)"/>
    </g>
</svg>
