<svg xmlns="http://www.w3.org/2000/svg" width="33.553" height="33.553" viewBox="0 0 33.553 33.553">
    <g>
        <path d="M7.338 12.676a3.432 3.432 0 1 1 3.432-3.432 3.436 3.436 0 0 1-3.432 3.432zm26.308-3.432a3.432 3.432 0 1 0-3.432 3.432 3.436 3.436 0 0 0 3.432-3.432zM22.97 6.194a4.194 4.194 0 1 0-4.194 4.194 4.2 4.2 0 0 0 4.194-4.194zM2 21.064V34.79a.763.763 0 0 0 1.525 0v-3.813h30.5v3.813a.763.763 0 0 0 1.525 0V21.064zm32.028-6.1a2.276 2.276 0 0 0-.843-1.76 4.919 4.919 0 0 1-5.939 0 2.276 2.276 0 0 0-.843 1.76v4.575h7.626zm-9.151-1.525a3.049 3.049 0 0 0-2.33-2.955 5.685 5.685 0 0 1-7.54 0 3.049 3.049 0 0 0-2.33 2.955v6.1h12.2zm-13.726 1.525a2.276 2.276 0 0 0-.843-1.76 4.919 4.919 0 0 1-5.939 0 2.276 2.276 0 0 0-.843 1.76v4.575h7.626z" transform="translate(-2 -2)"/>
    </g>
</svg>
