<svg xmlns="http://www.w3.org/2000/svg" width="35.62" height="35.62" viewBox="0 0 35.62 35.62">
    <g>
        <g>
            <path d="M93.131 0a3.131 3.131 0 1 0 3.131 3.131A3.134 3.134 0 0 0 93.131 0z" transform="translate(6.261) translate(-90)"/>
        </g>
    </g>
    <g>
        <g>
            <path d="M227.88 0h-14.749A3.134 3.134 0 0 0 210 3.131v3.708a4.171 4.171 0 0 1 .864.645l2.046 2.046 1.484-.742a3.921 3.921 0 0 1 2.764-.319l5.008-2.5a3.131 3.131 0 0 1 2.8 5.6l-4.8 2.4a4.136 4.136 0 0 1-2.041 2.291l-.878.439h10.633a3.134 3.134 0 0 0 3.131-3.131V3.131A3.134 3.134 0 0 0 227.88 0z" transform="translate(14.61) translate(-210)"/>
        </g>
    </g>
    <g>
        <g>
            <path d="M29.109 111.584a1.045 1.045 0 0 0-1.4-.467l-5.82 2.91a2.041 2.041 0 0 0-1.952-.086l-2.829 1.414-3.108-3.11a2.073 2.073 0 0 0-1.476-.612h-8.35A4.178 4.178 0 0 0 0 115.808v6.331a2.09 2.09 0 0 0 2.783 1.968l1.391-.491v13.2a2.087 2.087 0 0 0 4.174 0v-7.374a1.044 1.044 0 0 1 2.087 0v7.374a2.087 2.087 0 0 0 4.174 0v-17.455l1.391.49a2.022 2.022 0 0 0 1.63-.09l4.174-2.087a2.065 2.065 0 0 0 1.129-1.836l5.709-2.854a1.044 1.044 0 0 0 .467-1.4z" transform="translate(0 7.723) translate(0 -111.008)"/>
        </g>
    </g>
</svg>
