<svg xmlns="http://www.w3.org/2000/svg" width="27.245" height="27.245" viewBox="0 0 27.245 27.245">
    <defs>
        <clipPath id="clip-path">
            <path id="Path_690" d="M3.272-497.121a10.779 10.779 0 0 1-.08-1.256 10.488 10.488 0 0 1 10.43-10.43 10.458 10.458 0 0 1 7 2.751l-.921.937a.816.816 0 0 0-.207.8.835.835 0 0 0 .607.543c.161.032 5.439 1.733 5.1 1.666a.807.807 0 0 0 .942-.942l-1.133-5.689a.8.8 0 0 0-.559-.607.8.8 0 0 0-.782.207l-.782.766A13.614 13.614 0 0 0 13.622-512 13.669 13.669 0 0 0 0-498.378v.032c0 .45.021.8.044 1.064a.8.8 0 0 0 .639.711l1.64.328a.8.8 0 0 0 .949-.878z" class="cls-1" transform="translate(0 512)"/>
        </clipPath>
        <clipPath id="clip-path-2">
            <path id="Path_692" d="M45.923-296.227l-1.645-.335a.8.8 0 0 0-.952.879 10.866 10.866 0 0 1 .082 1.264 10.488 10.488 0 0 1-10.43 10.43 10.4 10.4 0 0 1-7-2.767l.921-.921a.816.816 0 0 0 .207-.8.835.835 0 0 0-.607-.543c-.161-.032-5.439-1.733-5.1-1.666a.782.782 0 0 0-.718.223.8.8 0 0 0-.224.718l1.134 5.635a.8.8 0 0 0 .559.607.767.767 0 0 0 .782-.207l.766-.766a13.668 13.668 0 0 0 9.28 3.677 13.669 13.669 0 0 0 13.622-13.62v-.048c0-.354-.013-.7-.042-1.046a.8.8 0 0 0-.635-.714z" class="cls-1" transform="translate(-20.445 296.578)"/>
        </clipPath>
        <style>
            .cls-1{fill:#fff}
        </style>
    </defs>
    <g id="Group_2469" transform="translate(0 512)">
        <g id="Group_2467" clip-path="url(#clip-path)" transform="translate(0 -512)">
            <path id="Path_689" d="M-5-517h26.69v16.3H-5z" class="cls-1" transform="translate(4.734 516.734)"/>
        </g>
        <g id="Group_2468" clip-path="url(#clip-path-2)" transform="translate(1.088 -500.537)">
            <path id="Path_691" d="M15.445-301.578h26.689v16.314H15.445z" class="cls-1" transform="translate(-15.711 301.312)"/>
        </g>
    </g>
</svg>
