<svg xmlns="http://www.w3.org/2000/svg" width="25.771" height="23.953" viewBox="0 0 25.771 23.953">
    <defs>
        <clipPath id="clip-path">
            <path id="Path_688" d="M23.767-470.1h-2.733v-4.972a.859.859 0 0 0-.859-.859H5.6a.859.859 0 0 0-.859.859v4.972H2a2.007 2.007 0 0 0-2 2v8.643a2.007 2.007 0 0 0 2 2h2.738v4.611a.859.859 0 0 0 .859.859h14.578a.859.859 0 0 0 .859-.859v-4.611h2.733a2.007 2.007 0 0 0 2-2v-8.643a2.007 2.007 0 0 0-2-2zm-17.311-4.117h12.86v4.113H6.456zM19.315-453.7H6.456v-7.028h12.859zm.859-11.36h-2.186a.859.859 0 0 1-.859-.859.859.859 0 0 1 .859-.859h2.187a.859.859 0 0 1 .859.859.859.859 0 0 1-.859.859z" class="cls-1" transform="translate(0 475.935)"/>
        </clipPath>
        <style>
            .cls-1{fill:#fff}
        </style>
    </defs>
    <g id="Group_2463" clip-path="url(#clip-path)">
        <path id="Path_687" d="M-5-480.935h26.275v24.456H-5z" class="cls-1" transform="translate(4.748 480.683)"/>
    </g>
</svg>
