<svg xmlns="http://www.w3.org/2000/svg" width="46" height="53" viewBox="0 0 46 53">
    <defs>
        <clipPath id="clip-path">
            <path id="Path_463" d="M24.108-374.1l-.45.658a3.056 3.056 0 0 1 1.586 2.475 3.251 3.251 0 0 1-1.826 2.633 4.924 4.924 0 0 0-1.318-2.976 1.73 1.73 0 0 0 1.26-1.663 1.73 1.73 0 0 0-1.329-1.68v-.18a.665.665 0 0 1 .664-.664v-.8a1.463 1.463 0 0 0-1.461 1.461v.18a1.73 1.73 0 0 0-1.322 1.536 5.047 5.047 0 0 0-.766-.333 2.083 2.083 0 0 0-2.117.215 4.1 4.1 0 0 0 .254-1.424v-.4H13.7l-.1.24a2.206 2.206 0 0 1-2.024 1.328 2.206 2.206 0 0 1-2.024-1.328l-.1-.24H7.449v.4a4.094 4.094 0 0 0 .745 2.358 2.113 2.113 0 0 0-.886-.194 2.125 2.125 0 0 0-1.773.954l-.715-.715-.555-.555a4.778 4.778 0 0 0 .725.053 5.229 5.229 0 0 0 .93-.08l.263-.052.052-.263c.017-.085.4-2.105-.673-3.177-1.072-1.072-3.092-.69-3.177-.673l-.263.052-.052.263a4.821 4.821 0 0 0 .167 2.387A4 4 0 0 0 0-370.969a12.935 12.935 0 0 0 3.814 9.207 12.935 12.935 0 0 0 9.207 3.814 12.935 12.935 0 0 0 9.207-3.814 12.935 12.935 0 0 0 3.814-9.207 3.8 3.8 0 0 0-1.934-3.131zm-1.922 4.316a2.7 2.7 0 0 1 .418 1.663l-1.663-1.663zm-.557-4.116a.931.931 0 0 1 .93.93.931.931 0 0 1-.93.93.927.927 0 0 1-.278-.042c-.177-.162-.359-.313-.544-.453a.924.924 0 0 1-.108-.434.931.931 0 0 1 .93-.931zm-1.252 2.118a1.735 1.735 0 0 0 .542.386q.07.066.139.135a7.266 7.266 0 0 1 .6.68h-1.28v-1.2zm0 2.562l1.6 1.6-.2.079a3.155 3.155 0 0 1-1.4-.439v-1.243zm-1.487-3.471a4.309 4.309 0 0 1 .69.3v1.242l-1.662-1.662a2.008 2.008 0 0 1 .973.118zm-1.536.448l1.662 1.662h-1.243a2.715 2.715 0 0 1-.418-1.664zm2.225 2.459v1.28a7.194 7.194 0 0 1-.68-.6 7.233 7.233 0 0 1-.6-.68zm-2.866-1.235a6.632 6.632 0 0 0 1.622 2.479 7.04 7.04 0 0 0 2.058 1.458 22.6 22.6 0 0 1-2.858.589c-.08-.039-.159-.081-.235-.128l-.216-.132-.212.14a.4.4 0 0 1-.485.022.4.4 0 0 1 .021-.486l.14-.212-.133-.217a3.877 3.877 0 0 1 .191-3.9 3.808 3.808 0 0 0 .108.385zm-1.048-3.239h.793a3.331 3.331 0 0 1-2.242 2.751 4.114 4.114 0 0 0 1.45-2.752zm-.044 6.966a1.181 1.181 0 0 0 .016 1.007q-.544.042-1.1.067a4.182 4.182 0 0 0 .514-3l-.051-.261-.263-.052c-.085-.017-2.105-.4-3.177.673a3.412 3.412 0 0 0-.742 2.6q-.428-.028-.847-.066.057-.053.111-.107l.282-.282-1.471-1.471-.564.564.891.891a3.289 3.289 0 0 1-.412.276q-.635-.084-1.239-.193v-1.613a2.109 2.109 0 0 0 .8-.269 2.1 2.1 0 0 0 1.064.285h.08a2.119 2.119 0 0 0 2.045-2.124c0-.057 0-.115-.007-.171h1.61a4.1 4.1 0 0 0 2.573-.906 4.649 4.649 0 0 0-.111 4.15zm-3.145.9h1.064a1.991 1.991 0 0 1-.519.209q-.374 0-.743-.008zm-.875-.252c0-.111.005-.228.016-.348a2.047 2.047 0 0 1 .5-1.3 1.38 1.38 0 0 1 .259-.2v1.07zm1.673-.545l1.058-1.058a3.319 3.319 0 0 1-.166 1.058zm-.1-1.03v-.546a3.879 3.879 0 0 1 .591-.045zm-3.945-3.045a4.1 4.1 0 0 0 1.5.644 1.336 1.336 0 0 1 .025.255 1.324 1.324 0 0 1-1.276 1.328h-.045a1.33 1.33 0 0 1-.416-.067 2.114 2.114 0 0 0 .416-1.262 2.111 2.111 0 0 0-.2-.901zm-.3-2.992a3 3 0 0 0 2.638 1.568 3 3 0 0 0 2.638-1.568h.66a3.326 3.326 0 0 1-3.3 2.923 3.326 3.326 0 0 1-3.3-2.923zM7.307-371.7a1.33 1.33 0 0 1 1.329 1.329 1.33 1.33 0 0 1-1.329 1.329 1.33 1.33 0 0 1-1.329-1.329 1.33 1.33 0 0 1 1.329-1.329zm-.537 3.385v1.506q-.655-.143-1.258-.317l1.2-1.2zm-1.039-.632a2.141 2.141 0 0 0 .244.23l-1.319 1.319-.177-.063-.061-.023a3.314 3.314 0 0 1-.546-1.464h1.859zm-1.176-2.448l.659.659a2.129 2.129 0 0 0-.032.365 2.117 2.117 0 0 0 .095.628H3.871a3.318 3.318 0 0 1 .684-1.649zm-1.489 2.4a3.306 3.306 0 0 1-.346-1.478 3.3 3.3 0 0 1 .708-2.05l.561.561a4.116 4.116 0 0 0-.928 2.315 4.122 4.122 0 0 0 .005.655zm1.673-6.972a1.349 1.349 0 0 1 .259.2 2.37 2.37 0 0 1 .52 1.647l-.779-.779zm.215 2.411a2.846 2.846 0 0 1-1.376-.313h1.063zm-1.013-2.683v.543l-.592-.592a3.947 3.947 0 0 1 .592.052zm-.1 1.573h-.9a3.237 3.237 0 0 1-.162-1.058zm-1.2 1.048q.047.054.1.105a2.1 2.1 0 0 0 .283.236 4.087 4.087 0 0 0-1.1 2.8 4.1 4.1 0 0 0 .532 2.025A3.137 3.137 0 0 1 .8-370.969a3.211 3.211 0 0 1 1.845-2.645zm19.018 11.288a12.143 12.143 0 0 1-8.643 3.58 12.143 12.143 0 0 1-8.643-3.58 12.136 12.136 0 0 1-3.35-6.267 8.332 8.332 0 0 0 3.179 1.885 26.717 26.717 0 0 0 8.814 1.32 26.715 26.715 0 0 0 8.814-1.32 8.329 8.329 0 0 0 3.179-1.885 12.136 12.136 0 0 1-3.346 6.271z" class="cls-1" transform="translate(0 377.08)"/>
        </clipPath>
        <clipPath id="clip-path-2">
            <path id="Path_465" d="M131.507-366.01l.166.78a30.966 30.966 0 0 1 13.636.323l.219-.767a31.838 31.838 0 0 0-14.021-.336z" class="cls-1" transform="translate(-131.507 366.63)"/>
        </clipPath>
        <style>
            .cls-1{fill:none}
        </style>
    </defs>
    <g id="Group_4085" transform="translate(-923 -534.5)">
        <path id="Polygon_6" fill="#fed200" d="M36.282 0a6 6 0 0 1 5.2 3l9.793 17a6 6 0 0 1 0 5.99L41.481 43a6 6 0 0 1-5.2 3H16.718a6 6 0 0 1-5.2-3L1.725 26a6 6 0 0 1 0-5.99L11.519 3a6 6 0 0 1 5.2-3z" transform="rotate(90 217.25 751.75)"/>
        <g id="Group_1745" transform="translate(933 929.595)">
            <g id="Group_1743" clip-path="url(#clip-path)" transform="translate(0 -377.08)">
                <path id="Path_462" d="M-5-382.081h26.549v19.64H-5z" transform="translate(4.746 381.826)"/>
            </g>
            <g id="Group_1744" clip-path="url(#clip-path-2)" transform="translate(6.688 -376.549)">
                <path id="Path_464" d="M126.507-371.63h14.529v2.231h-14.529z" transform="translate(-126.761 371.375)"/>
            </g>
        </g>
    </g>
</svg>
